<?xml version="1.0" encoding="utf-8"?>
<!-- Generator: Adobe Illustrator 16.0.0, SVG Export Plug-In . SVG Version: 6.00 Build 0)  -->
<!DOCTYPE svg PUBLIC "-//W3C//DTD SVG 1.1//EN" "http://www.w3.org/Graphics/SVG/1.1/DTD/svg11.dtd">
<svg version="1.1" id="Capa_1" xmlns="http://www.w3.org/2000/svg" xmlns:xlink="http://www.w3.org/1999/xlink" x="0px" y="0px"
	 width="64px" height="64px" viewBox="0 0 64 64" enable-background="new 0 0 64 64" xml:space="preserve">
<g>
	<g>
		<path fill="#FFDA09" d="M62.916,32.084C62.916,49.158,49.074,63,32,63l0,0C14.925,63,1.083,49.158,1.083,32.084l0,0
			C1.083,15.009,14.925,1.167,32,1.167l0,0C49.074,1.167,62.916,15.009,62.916,32.084L62.916,32.084z"/>
	</g>
	<g>
		<path d="M23.868,46.227l-4.372,0.799c-0.084,1.414-0.142,2.848-0.227,4.262l-2.708,0.496c0.365-5.123,0.745-10.299,1.318-15.484
			l3.777-0.689c2.348,4.65,4.54,9.258,6.693,13.922l-2.721,0.693C25.045,48.906,24.456,47.566,23.868,46.227z M19.607,44.943
			l3.42-0.627c-0.917-2.066-1.859-4.127-2.792-6.141l-0.19,0.033C19.89,40.447,19.734,42.686,19.607,44.943z"/>
		<path d="M31.054,49.135L28.367,34.43c6.577-2.158,10.2-1.004,10.885,2.75c0.652,3.563-2.08,5.805-6.297,7.041l0.808,4.418
			L31.054,49.135z M31.457,36.025l1.081,5.916c3.097-0.248,4.572-1.303,4.127-3.75C36.252,35.936,34.505,35.1,31.457,36.025z"/>
		<path d="M49.579,43.564l3.516-0.643l0.196,2.148l-9.453,1.727l-0.387-2.113l3.396-0.619l-1.919-10.501l-3.397,0.62l-0.386-2.113
			l9.524-1.741l0.388,2.113l-3.397,0.622L49.579,43.564z"/>
	</g>
	<g>
		<path d="M21.415,23.079l-3.847,0.706c-0.074,1.246-0.123,2.508-0.197,3.753l-2.384,0.437c0.318-4.51,0.649-9.066,1.151-13.63
			l3.325-0.61c2.069,4.093,4.001,8.147,5.9,12.251l-2.395,0.612C22.454,25.439,21.935,24.258,21.415,23.079z M17.665,21.952
			l3.011-0.552c-0.809-1.819-1.639-3.632-2.461-5.404l-0.168,0.031C17.911,17.994,17.775,19.964,17.665,21.952z"/>
		<path d="M27.301,25.715l-0.322-1.756l2.53-0.464c-0.56-2.815-0.979-4.985-1.359-6.818l-2.498,0.286l-0.115-1.686l4.307-0.79
			c0.04,0.101,0.38,1.248,0.518,1.763c0.742-1.259,2.068-2.389,3.988-3.001l0.558,2.449c-1.779,0.434-3.153,1.075-4.22,1.854
			c0.33,1.56,0.673,3.313,1.122,5.521l3.157-0.579l0.133,1.791L27.301,25.715z"/>
		<path d="M40.049,24.996c4.552-1.223,5.029-1.678,4.608-4.325c-0.598,0.629-1.406,1.166-2.515,1.369
			c-2.174,0.399-4.129-0.949-4.62-3.625c-0.605-3.304,1.578-5.886,4.651-6.45c1.046-0.191,2.125-0.197,3.228-0.074
			c0.253,1.142,1.1,5.633,1.41,7.326c0.698,3.805-0.286,6.45-6.17,7.832L40.049,24.996z M44.404,19.292l-0.963-5.249
			c-0.616-0.06-1.199-0.059-1.743,0.041c-1.484,0.272-2.328,1.442-1.976,3.366c0.38,2.07,1.626,2.857,2.985,2.607
			C43.314,19.946,43.89,19.667,44.404,19.292z"/>
	</g>
</g>
</svg>
